inDegrees=no
num_controls=7
num_derivatives=13
num_iterations=111
num_multipliers=7
num_parameters=0
num_slacks=7
num_states=26
objective=5.260520
objective_accelerations=0.479359
objective_balance=0.093739
objective_effort=0.382092
objective_height=4.243675
objective_ligament=0.061655
solver_duration=1258.186443
status=Solve_Succeeded
success=true
DataType=double
version=3
OpenSimVersion=4.4-2022-07-23-0e9fedc
endheader
time	/jointset/ground_pelvis/pelvis_tilt/value	/jointset/ground_pelvis/pelvis_tx/value	/jointset/ground_pelvis/pelvis_ty/value	/jointset/hip_l/hip_flexion_l/value	/jointset/hip_l/hip_adduction_l/value	/jointset/hip_l/hip_rotation_l/value	/jointset/back/lumbar_extension/value	/jointset/patellofemoral_l/patellar_flexion_l/value	/jointset/knee_l/knee_flexion_l/value	/jointset/knee_l/knee_adduction_l/value	/jointset/knee_l/knee_rotation_l/value	/jointset/ankle_l/ankle_angle_l/value	/jointset/subtalar_l/subtalar_angle_l/value	/jointset/ground_pelvis/pelvis_tilt/speed	/jointset/ground_pelvis/pelvis_tx/speed	/jointset/ground_pelvis/pelvis_ty/speed	/jointset/hip_l/hip_flexion_l/speed	/jointset/hip_l/hip_adduction_l/speed	/jointset/hip_l/hip_rotation_l/speed	/jointset/back/lumbar_extension/speed	/jointset/patellofemoral_l/patellar_flexion_l/speed	/jointset/knee_l/knee_flexion_l/speed	/jointset/knee_l/knee_adduction_l/speed	/jointset/knee_l/knee_rotation_l/speed	/jointset/ankle_l/ankle_angle_l/speed	/jointset/subtalar_l/subtalar_angle_l/speed	/forceset/tau_hip_flexion_l	/forceset/tau_hip_adduction_l	/forceset/tau_hip_rotation_l	/forceset/tau_knee_flexion_l	/forceset/tau_ankle_angle_l	/forceset/tau_subtalar_angle_l	/forceset/tau_lumbar_extension	lambda_cid13_p0	lambda_cid13_p1	lambda_cid13_p2	lambda_cid13_p3	lambda_cid13_p4	lambda_cid13_p5	lambda_cid14_p0	/jointset/ground_pelvis/pelvis_tilt/accel	/jointset/ground_pelvis/pelvis_tx/accel	/jointset/ground_pelvis/pelvis_ty/accel	/jointset/hip_l/hip_flexion_l/accel	/jointset/hip_l/hip_adduction_l/accel	/jointset/hip_l/hip_rotation_l/accel	/jointset/back/lumbar_extension/accel	/jointset/patellofemoral_l/patellar_flexion_l/accel	/jointset/knee_l/knee_flexion_l/accel	/jointset/knee_l/knee_adduction_l/accel	/jointset/knee_l/knee_rotation_l/accel	/jointset/ankle_l/ankle_angle_l/accel	/jointset/subtalar_l/subtalar_angle_l/accel	gamma_cid13_p0	gamma_cid13_p1	gamma_cid13_p2	gamma_cid13_p3	gamma_cid13_p4	gamma_cid13_p5	gamma_cid14_p0
0	-0.1601611254738405	0.05857228883677123	0.8979985439453443	0.3774920279260975	-0.259140049831746	-0.2729170930420045	-0.0126506700172305	0.03223623128435722	0.03223623128433527	-0.1745327288206051	0.1744764554771916	-0.04231376238535053	-0.009265097076274775	0	0	0	0	0	0	0	0	0	0	0	0	0	0.1498024953864063	-0.07809244578843877	-0.05400392731841298	-0.3216844763376848	0.3462149614659231	-0.05496714553002448	-0.09000605803670371	68.44982818057186	5.633956728739536	5.842038991659166	-19.11713520613305	-596.0240546027101	-67.55619585177718	-39.07280098045251	-3.660817638700196	-1.623548913723904	-0.9341618179633067	10.51741066810242	-1.089961529096797	2.677317183276494	-5.213346868375618	7.952960472276745	7.952960472272728	0.09093117126189751	0.09109735235383015	1.192556383394719	-0.8383943621844839	-1.495312480611317e-08	2.724319017755668e-08	3.787584016722398e-08	3.595259489346432e-09	2.866794118915477e-08	-1.498249496585195e-08	-6.121109385841094e-09
0.01	-0.1603373951352645	0.05849171528907623	0.8979529086504671	0.3780045540294877	-0.2591944129178696	-0.2727828572247607	-0.01291248844669841	0.03262452502919393	0.03262452502888861	-0.1745301364564753	0.1744775741476376	-0.04225716941250823	-0.009307582260165559	-0.03499289323063095	-0.01608582263535622	-0.009090661385276427	0.1019903730650163	-0.01083385683907431	0.02680490295603964	-0.0520630092437425	0.07730058539491758	0.07730058539491026	0.0004906328403666165	0.0001437818221314692	0.01121382616998325	-0.008483468147071051	0.1418582741450417	-0.08839901031593003	-0.05209930922588051	-0.3102401168946533	0.3271343710632551	-0.03774114404499444	-0.08400400443715721	62.95522735627556	-0.5922622075196474	6.500026068805684	-15.87660016059764	-596.7488438619944	-79.28435894510264	-39.08392394998318	-3.379372447316154	-1.596765186454002	-0.891052927028044	9.962620800149365	-1.074293364695507	2.675733011295526	-5.157676451583757	7.564884268256602	7.56488426825842	0.02396280438673585	-0.03597848112264573	1.070079145730078	-0.8512962598210194	-3.91369143614773e-08	6.957465457779048e-08	7.478770435698532e-08	1.815074813322278e-08	-6.454269390010138e-08	2.751319567920783e-09	-1.233232174264479e-08
0.02	-0.160855763185464	0.05825115026542235	0.8978174598160862	0.3795215378982321	-0.2593559536930802	-0.2723818411460269	-0.01368591666851646	0.03377507996657624	0.03377507996656748	-0.1745234710699095	0.1744777312212651	-0.04209158149558355	-0.009434496769297508	-0.06841967774381676	-0.03199829519177552	-0.01796270790071711	0.2008915531079249	-0.02143553781352678	0.0533560522931214	-0.1023219584557274	0.1524522385960911	0.1524522385961098	0.0008146042392149715	-0.0001923194863779936	0.02179898881713971	-0.01688586504826432	0.1339140529021713	-0.0987055748431698	-0.05019469113061353	-0.2987957574527446	0.3080537806604522	-0.02051514255978476	-0.07800195083879921	57.52696145179716	-6.830229546725567	7.16004238925209	-12.75684055574719	-596.464934383004	-90.91905387037777	-39.11673859061375	-3.347595895210116	-1.588878897937456	-0.8904388439962886	9.89957206368072	-1.043526356173901	2.626566459484778	-4.852534862023228	7.523174033528038	7.523174033530692	0.05759888295533023	-0.004879273774108343	1.066823678827804	-0.8221801130107412	-6.332070391684143e-08	1.119061189780243e-07	1.116995685467467e-07	3.270623677709913e-08	-1.577533289893575e-07	2.048513410169352e-08	-1.854353409944849e-08
0.03	-0.1617019191872608	0.05785300937195152	0.8975941802066549	0.3820131543107245	-0.259621959583146	-0.2717176214353006	-0.01495209741338058	0.03566715195216284	0.03566715195224866	-0.1745138282042387	0.174473370892567	-0.04182213870191014	-0.009644386290430866	-0.1006576998853417	-0.04753103999844143	-0.02667263923244606	0.2969787206249457	-0.03169426677785891	0.07934020074378378	-0.1505598670383199	0.2256600737661625	0.2256600737661474	0.001128013647443947	-0.000639418002067689	0.03209365982004342	-0.02502156772272865	0.1287465115908852	-0.09239811197721122	-0.04947178630887736	-0.2941249631786048	0.3039139133282188	-0.02371299992698256	-0.07371682948114856	56.08937665997021	-5.324519483443615	7.073998097476307	-12.47704166175994	-596.6041147373013	-87.03818952841343	-39.17012560117936	-3.138838867482306	-1.520639149467384	-0.8582159921679534	9.395327630415096	-1.006359375747335	2.562170914142047	-4.756270332498052	7.174279276889235	7.174279276882213	0.02034660599336414	-0.05858912187724664	1.011398303217226	-0.7987244373388167	-7.719480682647944e-08	1.109238426888092e-07	1.298704151409528e-07	4.569539907075767e-08	-2.380081746045242e-07	2.040076286628946e-08	-2.243204458599207e-08
0.04	-0.162865842109303	0.05730250765492319	0.8972844121410221	0.3854520501053512	-0.259988415404691	-0.2707979938648479	-0.01669002753929599	0.03828224049325987	0.03828224049325707	-0.1745006243169962	0.1744657467822246	-0.04144962729977008	-0.009933524656843988	-0.1319730617810678	-0.0624704599032735	-0.03526039914100693	0.3903474295299633	-0.04152552410959815	0.104437624245854	-0.1966718346655883	0.2970555496619229	0.2970555496618614	0.001526808505132449	-0.0008450757741582461	0.04241271051074808	-0.03273563410418266	0.1235789702803544	-0.08609064911115247	-0.04874888148821893	-0.2894541689038236	0.2997740459961954	-0.02691085729402161	-0.06943170812304943	54.71359482349524	-3.827791559708065	6.987287684540414	-12.31370843543439	-595.8209520054392	-83.0662465151207	-39.24299863927997	-3.163063846049051	-1.470213917571791	-0.8660045593627125	9.355880341280226	-0.9580320296555955	2.449221469766189	-4.427346670957573	7.160702178665969	7.160702178666099	0.07467597284672302	0.04340887494586215	1.07169961638659	-0.7378528544092707	-9.085633887744269e-08	1.09048499581255e-07	1.4765484900123e-07	5.865226597575194e-08	-3.179958905398128e-07	1.994900635729412e-08	-2.62726643123241e-08
0.05	-0.1643382349965629	0.05660524756005157	0.8968892167570014	0.389811461220293	-0.2604510212291722	-0.2696315718766392	-0.01887851609182022	0.04160223905204741	0.04160223905192004	-0.1744831202407756	0.174457021252955	-0.04097424910577613	-0.01029779476438433	-0.1623129894442998	-0.07691347825766222	-0.04376878228081735	0.4810664942417888	-0.05092406510105697	0.1287304441670533	-0.2407096017618922	0.3666087740449884	0.3666087740450194	0.001966472008886857	-0.0009020783765876841	0.05261131528007294	-0.04006258634582638	0.116615625590102	-0.08339282111641007	-0.04752190667780292	-0.2821488898923813	0.2901577088903637	-0.02467273197860105	-0.06400039616234204	51.77021013743435	-4.31823707113067	7.104076904479595	-10.88146493396506	-595.1391993672676	-82.90229737605014	-39.33399935455816	-2.940584148520929	-1.421121840136586	-0.8418351295541758	8.859662355282017	-0.9200455238005275	2.401841575116527	-4.344550615115788	6.802329648630623	6.802329648644561	0.02751106655224868	-0.03058221793115037	0.9861929239637885	-0.7217791423230233	-1.025889923040487e-07	1.165900442207747e-07	1.663332115236276e-07	6.840618304651647e-08	-3.750001061552621e-07	2.372810848125735e-08	-2.965362694904781e-08
0.06	-0.1661082525449304	0.05576560207248054	0.8964092215539264	0.3950640115461153	-0.2610054685415547	-0.2682257158248523	-0.02149789409256424	0.04560770927061669	0.04560770927060606	-0.1744614396241842	0.1744476602198628	-0.04039843446073908	-0.01073366694099745	-0.1914979939897153	-0.09094753844315648	-0.05222036295182989	0.5689752717195435	-0.05989382168891921	0.1523244369610057	-0.2828497243040096	0.4341498816481817	0.4341498816483074	0.002362116609133594	-0.0009721765827730238	0.06250000071970258	-0.04705604791872169	0.1096522808996131	-0.08069499312156035	-0.0462949318663474	-0.2748436108812131	0.280541371784528	-0.02243460666309061	-0.05856908420184736	48.88157800448443	-4.816090901343399	7.219560821437093	-9.55711521787792	-593.6327686007278	-82.65613704294515	-39.44164618859239	-2.93207922248445	-1.38842228379395	-0.8546440656031633	8.79382289446623	-0.8722751489363939	2.309456044316651	-4.047817760119477	6.758278822691631	6.75827882269218	0.06587219214495056	0.04078975419481569	1.009715750446244	-0.6711547206600209	-1.142404297885765e-07	1.245280893970132e-07	1.850492131475882e-07	7.802523907162921e-08	-4.31036595441455e-07	2.768535202134515e-08	-3.301523560305116e-08
0.07000000000000001	-0.1681648909636571	0.0547877664163601	0.8958448472836927	0.4011824438155771	-0.2616473022759967	-0.2665874838642062	-0.02452885072507125	0.05027909634077581	0.05027909634082534	-0.1744357256314654	0.1744377819542341	-0.03972491085262982	-0.01123756668986957	-0.2196545779828879	-0.1045381092484916	-0.06065327551197655	0.654257640129117	-0.06838681184311345	0.1752019147229276	-0.3230285057543015	0.4998038248868699	0.4998038248868007	0.002790378262650085	-0.0009987809309340689	0.0721753042273595	-0.05364970189045949	0.1029201226307404	-0.07727358888380387	-0.04523832240119368	-0.2689768253181566	0.2732328090530495	-0.02143338890069431	-0.05325634543346896	46.66807475168902	-4.906901205087835	7.283782170290648	-8.740266021950072	-592.4797849252263	-81.61951537631339	-39.56416341088488	-2.731187454367471	-1.332136230139405	-0.8375194004015273	8.327397565563075	-0.8249118372717417	2.25886025253871	-3.955943869249656	6.42040259319337	6.420402593164044	0.03279231295392777	-0.02370754826912536	0.9420177241493131	-0.6423801609148611	-1.205057636700053e-07	1.270711283655717e-07	1.934336613591903e-07	8.497459245995573e-08	-4.667288691838694e-07	3.038241984915365e-08	-3.433751759445016e-08
0.08	-0.1704978431157051	0.05367647270193674	0.8951961629780195	0.4081400905193634	-0.2623714860896993	-0.2647240838038359	-0.0279522022784423	0.05559731294712381	0.05559731294711706	-0.1744054311898303	0.174427773241212	-0.03895551819480031	-0.0118051848635557	-0.2467607406411606	-0.1176391501037427	-0.06908237003973924	0.7368181585931374	-0.07636383754171074	0.1973580569011895	-0.3613287084750811	0.5635157888749726	0.5635157888747084	0.003278206356091733	-0.0009982660369817428	0.08167381066393715	-0.05979973288158079	0.09618796436175843	-0.07385218464613999	-0.04418171293674552	-0.2631100397551982	0.2659242463214609	-0.02043217113840285	-0.04794360666503665	44.5033637141843	-5.003264283187978	7.345474351565956	-8.022890085715398	-590.5968679789703	-80.5078505398489	-39.69974012918062	-2.721994955503272	-1.29051629377811	-0.8538804591263988	8.249452905355776	-0.7690822578171302	2.165188927584512	-3.672102014216279	6.369882972574636	6.369882972575162	0.07778548012981766	0.04621360261763423	0.9743563362291773	-0.5824301245370891	-1.264236069963954e-07	1.292661024175057e-07	2.01151557737737e-07	9.175170696848959e-08	-5.011086128912012e-07	3.299818601810541e-08	-3.552823012374566e-08
0.09	-0.1730969957024474	0.0524366073594188	0.8944630805969405	0.4159103823901401	-0.2631729000802133	-0.262642632257779	-0.03174887830144225	0.06154326687712142	0.06154326687709949	-0.1743700704920886	0.1744179281618282	-0.03809195299369468	-0.01243211623011516	-0.2728963469350602	-0.1302504198239049	-0.07753937017347221	0.816780185153284	-0.0838377142182388	0.2188277411126946	-0.3977017508907668	0.6253357934146968	0.6253357934144858	0.00378176835154665	-0.0009853295479773103	0.091001005167775	-0.06551999261825417	0.08916399840226905	-0.07067774385015821	-0.04311421825974816	-0.2575466438580441	0.2587951332380327	-0.01907190076494884	-0.04241626189574876	42.38574636510582	-5.250865745708054	7.416491888042141	-7.299402266693134	-589.0733166732663	-79.67530540420375	-39.84636041709546	-2.533334740901496	-1.233889067372162	-0.8425001675309572	7.800557089903765	-0.7243708217396768	2.122151634093956	-3.574193568470032	6.037185763511905	6.037185763519677	0.03485289378726113	-0.02338256109578012	0.9061592018307326	-0.556883441304756	-1.308861777426917e-07	1.269437230645874e-07	2.118038397577341e-07	9.651422345213643e-08	-5.209468957359907e-07	3.090657039491688e-08	-3.72204556491452e-08
